STARTFONT 2.1
COMMENT Exported by Fony v1.4.7
FONT DS-Digital-test3
SIZE 21 96 96
FONTBOUNDINGBOX 15 20 0 -4
STARTPROPERTIES 6
COPYRIGHT ""
RESOLUTION_X 96
RESOLUTION_Y 96
FONT_ASCENT 17
FONT_DESCENT 4
DEFAULT_CHAR 0
ENDPROPERTIES
CHARS 256
STARTCHAR 000
ENCODING 0
SWIDTH 792 0
DWIDTH 11 0
BBX 0 0 0 0
BITMAP
ENDCHAR
STARTCHAR 001
ENCODING 1
SWIDTH 792 0
DWIDTH 11 0
BBX 6 13 0 1
BITMAP
FC
CC
CC
CC
CC
CC
CC
CC
CC
CC
CC
CC
FC
ENDCHAR
STARTCHAR 002
ENCODING 2
SWIDTH 792 0
DWIDTH 11 0
BBX 0 0 0 0
BITMAP
ENDCHAR
STARTCHAR 003
ENCODING 3
SWIDTH 792 0
DWIDTH 11 0
BBX 6 13 0 1
BITMAP
FC
CC
CC
CC
CC
CC
CC
CC
CC
CC
CC
CC
FC
ENDCHAR
STARTCHAR 004
ENCODING 4
SWIDTH 792 0
DWIDTH 11 0
BBX 6 13 0 1
BITMAP
FC
CC
CC
CC
CC
CC
CC
CC
CC
CC
CC
CC
FC
ENDCHAR
STARTCHAR 005
ENCODING 5
SWIDTH 792 0
DWIDTH 11 0
BBX 6 13 0 1
BITMAP
FC
CC
CC
CC
CC
CC
CC
CC
CC
CC
CC
CC
FC
ENDCHAR
STARTCHAR 006
ENCODING 6
SWIDTH 792 0
DWIDTH 11 0
BBX 6 13 0 1
BITMAP
FC
CC
CC
CC
CC
CC
CC
CC
CC
CC
CC
CC
FC
ENDCHAR
STARTCHAR 007
ENCODING 7
SWIDTH 792 0
DWIDTH 11 0
BBX 6 13 0 1
BITMAP
FC
CC
CC
CC
CC
CC
CC
CC
CC
CC
CC
CC
FC
ENDCHAR
STARTCHAR 008
ENCODING 8
SWIDTH 792 0
DWIDTH 11 0
BBX 6 13 0 1
BITMAP
FC
CC
CC
CC
CC
CC
CC
CC
CC
CC
CC
CC
FC
ENDCHAR
STARTCHAR 009
ENCODING 9
SWIDTH 792 0
DWIDTH 11 0
BBX 0 0 0 0
BITMAP
ENDCHAR
STARTCHAR 010
ENCODING 10
SWIDTH 792 0
DWIDTH 11 0
BBX 0 0 0 0
BITMAP
ENDCHAR
STARTCHAR 011
ENCODING 11
SWIDTH 792 0
DWIDTH 11 0
BBX 6 13 0 1
BITMAP
FC
CC
CC
CC
CC
CC
CC
CC
CC
CC
CC
CC
FC
ENDCHAR
STARTCHAR 012
ENCODING 12
SWIDTH 792 0
DWIDTH 11 0
BBX 9 17 0 0
BITMAP
FF80
8080
8080
8080
8080
8080
8080
8080
8080
8080
8080
8080
8080
8080
8080
8080
FF80
ENDCHAR
STARTCHAR 013
ENCODING 13
SWIDTH 792 0
DWIDTH 11 0
BBX 0 0 0 0
BITMAP
ENDCHAR
STARTCHAR 014
ENCODING 14
SWIDTH 792 0
DWIDTH 11 0
BBX 6 13 0 1
BITMAP
FC
CC
CC
CC
CC
CC
CC
CC
CC
CC
CC
CC
FC
ENDCHAR
STARTCHAR 015
ENCODING 15
SWIDTH 792 0
DWIDTH 11 0
BBX 6 13 0 1
BITMAP
FC
CC
CC
CC
CC
CC
CC
CC
CC
CC
CC
CC
FC
ENDCHAR
STARTCHAR 016
ENCODING 16
SWIDTH 792 0
DWIDTH 11 0
BBX 6 13 0 1
BITMAP
FC
CC
CC
CC
CC
CC
CC
CC
CC
CC
CC
CC
FC
ENDCHAR
STARTCHAR 017
ENCODING 17
SWIDTH 792 0
DWIDTH 11 0
BBX 6 13 0 1
BITMAP
FC
CC
CC
CC
CC
CC
CC
CC
CC
CC
CC
CC
FC
ENDCHAR
STARTCHAR 018
ENCODING 18
SWIDTH 792 0
DWIDTH 11 0
BBX 6 13 0 1
BITMAP
FC
CC
CC
CC
CC
CC
CC
CC
CC
CC
CC
CC
FC
ENDCHAR
STARTCHAR 019
ENCODING 19
SWIDTH 792 0
DWIDTH 11 0
BBX 6 13 0 1
BITMAP
FC
CC
CC
CC
CC
CC
CC
CC
CC
CC
CC
CC
FC
ENDCHAR
STARTCHAR 020
ENCODING 20
SWIDTH 792 0
DWIDTH 11 0
BBX 6 13 0 1
BITMAP
FC
CC
CC
CC
CC
CC
CC
CC
CC
CC
CC
CC
FC
ENDCHAR
STARTCHAR 021
ENCODING 21
SWIDTH 792 0
DWIDTH 11 0
BBX 6 13 0 1
BITMAP
FC
CC
CC
CC
CC
CC
CC
CC
CC
CC
CC
CC
FC
ENDCHAR
STARTCHAR 022
ENCODING 22
SWIDTH 792 0
DWIDTH 11 0
BBX 6 13 0 1
BITMAP
FC
CC
CC
CC
CC
CC
CC
CC
CC
CC
CC
CC
FC
ENDCHAR
STARTCHAR 023
ENCODING 23
SWIDTH 792 0
DWIDTH 11 0
BBX 6 13 0 1
BITMAP
FC
CC
CC
CC
CC
CC
CC
CC
CC
CC
CC
CC
FC
ENDCHAR
STARTCHAR 024
ENCODING 24
SWIDTH 792 0
DWIDTH 11 0
BBX 6 13 0 1
BITMAP
FC
CC
CC
CC
CC
CC
CC
CC
CC
CC
CC
CC
FC
ENDCHAR
STARTCHAR 025
ENCODING 25
SWIDTH 792 0
DWIDTH 11 0
BBX 6 13 0 1
BITMAP
FC
CC
CC
CC
CC
CC
CC
CC
CC
CC
CC
CC
FC
ENDCHAR
STARTCHAR 026
ENCODING 26
SWIDTH 792 0
DWIDTH 11 0
BBX 6 13 0 1
BITMAP
FC
CC
CC
CC
CC
CC
CC
CC
CC
CC
CC
CC
FC
ENDCHAR
STARTCHAR 027
ENCODING 27
SWIDTH 792 0
DWIDTH 11 0
BBX 6 13 0 1
BITMAP
FC
CC
CC
CC
CC
CC
CC
CC
CC
CC
CC
CC
FC
ENDCHAR
STARTCHAR 028
ENCODING 28
SWIDTH 792 0
DWIDTH 11 0
BBX 0 0 0 0
BITMAP
ENDCHAR
STARTCHAR 029
ENCODING 29
SWIDTH 792 0
DWIDTH 11 0
BBX 0 0 0 0
BITMAP
ENDCHAR
STARTCHAR 030
ENCODING 30
SWIDTH 792 0
DWIDTH 11 0
BBX 0 0 0 0
BITMAP
ENDCHAR
STARTCHAR 031
ENCODING 31
SWIDTH 792 0
DWIDTH 11 0
BBX 0 0 0 0
BITMAP
ENDCHAR
STARTCHAR 032
ENCODING 32
SWIDTH 360 0
DWIDTH 5 0
BBX 0 0 0 0
BITMAP
ENDCHAR
STARTCHAR 033
ENCODING 33
SWIDTH 432 0
DWIDTH 6 0
BBX 2 15 2 -2
BITMAP
40
C0
C0
C0
C0
40
00
40
C0
C0
C0
C0
40
C0
C0
ENDCHAR
STARTCHAR 034
ENCODING 34
SWIDTH 432 0
DWIDTH 6 0
BBX 5 3 1 10
BITMAP
D8
D8
D8
ENDCHAR
STARTCHAR 035
ENCODING 35
SWIDTH 936 0
DWIDTH 13 0
BBX 10 11 1 1
BITMAP
1100
1B00
1B00
7EC0
76C0
1B00
1300
EEC0
55C0
1B00
1B00
ENDCHAR
STARTCHAR 036
ENCODING 36
SWIDTH 792 0
DWIDTH 11 0
BBX 8 18 1 -2
BITMAP
18
18
00
3F
FE
C0
C0
C0
BE
7F
03
03
03
03
FE
FE
00
18
ENDCHAR
STARTCHAR 037
ENCODING 37
SWIDTH 1080 0
DWIDTH 15 0
BBX 13 14 1 0
BITMAP
0060
30E0
78C0
CDC0
CD80
B900
7200
0600
0EE0
0D50
1D98
1998
3060
3060
ENDCHAR
STARTCHAR 038
ENCODING 38
SWIDTH 792 0
DWIDTH 11 0
BBX 10 13 1 0
BITMAP
3E00
FC00
C000
C300
C300
BFC0
7EC0
8100
C300
C300
C300
BC00
7C00
ENDCHAR
STARTCHAR 039
ENCODING 39
SWIDTH 288 0
DWIDTH 4 0
BBX 2 3 1 10
BITMAP
C0
C0
C0
ENDCHAR
STARTCHAR 040
ENCODING 40
SWIDTH 504 0
DWIDTH 7 0
BBX 5 13 1 0
BITMAP
38
F0
C0
C0
C0
80
80
C0
C0
C0
00
30
38
ENDCHAR
STARTCHAR 041
ENCODING 41
SWIDTH 504 0
DWIDTH 7 0
BBX 4 13 1 0
BITMAP
C0
60
30
30
30
10
00
10
30
30
30
40
C0
ENDCHAR
STARTCHAR 042
ENCODING 42
SWIDTH 720 0
DWIDTH 10 0
BBX 8 10 1 3
BITMAP
18
18
FB
77
00
7F
FF
18
18
18
ENDCHAR
STARTCHAR 043
ENCODING 43
SWIDTH 720 0
DWIDTH 10 0
BBX 8 9 1 2
BITMAP
18
18
18
F7
EF
00
18
18
18
ENDCHAR
STARTCHAR 044
ENCODING 44
SWIDTH 288 0
DWIDTH 4 0
BBX 2 2 1 -1
BITMAP
C0
C0
ENDCHAR
STARTCHAR 045
ENCODING 45
SWIDTH 720 0
DWIDTH 10 0
BBX 7 2 1 6
BITMAP
FE
FE
ENDCHAR
STARTCHAR 046
ENCODING 46
SWIDTH 288 0
DWIDTH 4 0
BBX 2 2 1 0
BITMAP
C0
C0
ENDCHAR
STARTCHAR 047
ENCODING 47
SWIDTH 720 0
DWIDTH 10 0
BBX 10 13 0 0
BITMAP
01C0
0380
0300
0700
0600
0400
0800
1800
3000
7000
6000
C000
4000
ENDCHAR
STARTCHAR 048
ENCODING 48
SWIDTH 720 0
DWIDTH 10 0
BBX 8 13 1 0
BITMAP
7E
FF
C3
C3
C3
C3
C3
C3
C3
C3
C3
FF
7E
ENDCHAR
STARTCHAR 049
ENCODING 49
SWIDTH 720 0
DWIDTH 10 0
BBX 2 13 4 0
BITMAP
40
C0
C0
C0
C0
C0
C0
C0
C0
C0
C0
C0
40
ENDCHAR
STARTCHAR 050
ENCODING 50
SWIDTH 792 0
DWIDTH 11 0
BBX 8 13 1 0
BITMAP
FF
7F
03
03
03
7F
FF
C0
C0
C0
C0
FE
7F
ENDCHAR
STARTCHAR 051
ENCODING 51
SWIDTH 792 0
DWIDTH 11 0
BBX 8 13 1 0
BITMAP
FE
FF
03
03
03
7F
7F
03
03
03
03
FF
FE
ENDCHAR
STARTCHAR 052
ENCODING 52
SWIDTH 792 0
DWIDTH 11 0
BBX 8 13 1 0
BITMAP
80
C1
C3
C3
C3
BF
7E
01
03
03
03
03
01
ENDCHAR
STARTCHAR 053
ENCODING 53
SWIDTH 792 0
DWIDTH 11 0
BBX 8 13 1 0
BITMAP
7F
3E
80
C0
C0
FE
BF
03
03
03
01
3E
7F
ENDCHAR
STARTCHAR 054
ENCODING 54
SWIDTH 792 0
DWIDTH 11 0
BBX 8 13 1 0
BITMAP
7F
3E
80
C0
C0
BE
7E
83
C3
C3
81
3F
7F
ENDCHAR
STARTCHAR 055
ENCODING 55
SWIDTH 792 0
DWIDTH 11 0
BBX 8 13 1 0
BITMAP
FE
7C
01
03
03
01
00
01
03
03
03
03
01
ENDCHAR
STARTCHAR 056
ENCODING 56
SWIDTH 792 0
DWIDTH 11 0
BBX 8 13 1 0
BITMAP
7F
3F
81
C3
C3
BF
7E
83
C3
C3
81
3F
7F
ENDCHAR
STARTCHAR 057
ENCODING 57
SWIDTH 792 0
DWIDTH 11 0
BBX 8 13 1 0
BITMAP
7F
3F
81
C3
C3
BF
7E
03
03
03
01
3E
7F
ENDCHAR
STARTCHAR 058
ENCODING 58
SWIDTH 360 0
DWIDTH 5 0
BBX 2 11 1 0
BITMAP
C0
C0
00
00
00
00
00
00
00
C0
C0
ENDCHAR
STARTCHAR 059
ENCODING 59
SWIDTH 360 0
DWIDTH 5 0
BBX 2 12 1 -1
BITMAP
C0
C0
00
00
00
00
00
00
00
C0
C0
C0
ENDCHAR
STARTCHAR 060
ENCODING 60
SWIDTH 504 0
DWIDTH 7 0
BBX 6 9 1 2
BITMAP
0C
1C
70
E0
00
E0
30
1C
0C
ENDCHAR
STARTCHAR 061
ENCODING 61
SWIDTH 720 0
DWIDTH 10 0
BBX 7 5 1 4
BITMAP
FE
FE
00
FE
FE
ENDCHAR
STARTCHAR 062
ENCODING 62
SWIDTH 504 0
DWIDTH 7 0
BBX 5 9 1 2
BITMAP
C0
E0
70
38
00
38
70
E0
C0
ENDCHAR
STARTCHAR 063
ENCODING 63
SWIDTH 792 0
DWIDTH 11 0
BBX 8 15 1 -2
BITMAP
FE
7E
03
03
03
3F
FE
C0
C0
C0
C0
80
00
C0
C0
ENDCHAR
STARTCHAR 064
ENCODING 64
SWIDTH 936 0
DWIDTH 13 0
BBX 11 13 1 0
BITMAP
3FE0
7FE0
C060
C7C0
C780
9860
1860
D860
C7A0
C7C0
C000
BFE0
7FE0
ENDCHAR
STARTCHAR 065
ENCODING 65
SWIDTH 792 0
DWIDTH 11 0
BBX 8 13 1 0
BITMAP
7F
3F
81
C3
C3
BF
7E
81
C3
C3
C3
C3
81
ENDCHAR
STARTCHAR 066
ENCODING 66
SWIDTH 792 0
DWIDTH 11 0
BBX 8 13 1 0
BITMAP
7E
3E
83
C3
C3
BF
7E
81
C3
C3
C3
BE
7E
ENDCHAR
STARTCHAR 067
ENCODING 67
SWIDTH 792 0
DWIDTH 11 0
BBX 8 13 1 0
BITMAP
3F
FE
C0
C0
C0
80
80
C0
C0
C0
00
3E
3F
ENDCHAR
STARTCHAR 068
ENCODING 68
SWIDTH 792 0
DWIDTH 11 0
BBX 8 13 1 0
BITMAP
7E
3E
83
C3
C3
81
00
81
C3
C3
C3
BE
7E
ENDCHAR
STARTCHAR 069
ENCODING 69
SWIDTH 792 0
DWIDTH 11 0
BBX 8 13 1 0
BITMAP
7F
3E
80
C0
C0
BE
7E
80
C0
C0
80
3E
7F
ENDCHAR
STARTCHAR 070
ENCODING 70
SWIDTH 792 0
DWIDTH 11 0
BBX 8 13 1 0
BITMAP
7F
3E
80
C0
C0
BE
7E
80
C0
C0
C0
C0
80
ENDCHAR
STARTCHAR 071
ENCODING 71
SWIDTH 792 0
DWIDTH 11 0
BBX 8 13 1 0
BITMAP
7E
FC
C0
C0
80
0E
8F
C3
C3
C3
C3
3E
3E
ENDCHAR
STARTCHAR 072
ENCODING 72
SWIDTH 792 0
DWIDTH 11 0
BBX 8 13 1 0
BITMAP
81
C3
C3
C3
C3
BF
7E
81
C3
C3
C3
C3
81
ENDCHAR
STARTCHAR 073
ENCODING 73
SWIDTH 432 0
DWIDTH 6 0
BBX 2 13 2 0
BITMAP
40
C0
C0
C0
C0
40
00
40
C0
C0
C0
C0
40
ENDCHAR
STARTCHAR 074
ENCODING 74
SWIDTH 792 0
DWIDTH 11 0
BBX 8 13 1 0
BITMAP
01
03
03
03
03
01
00
01
C3
C3
C3
BE
7E
ENDCHAR
STARTCHAR 075
ENCODING 75
SWIDTH 792 0
DWIDTH 11 0
BBX 8 13 1 0
BITMAP
87
CE
DC
F8
C0
BE
7E
81
C3
C3
C3
C3
81
ENDCHAR
STARTCHAR 076
ENCODING 76
SWIDTH 792 0
DWIDTH 11 0
BBX 8 13 1 0
BITMAP
80
C0
C0
C0
C0
80
00
80
C0
C0
80
3E
7F
ENDCHAR
STARTCHAR 077
ENCODING 77
SWIDTH 792 0
DWIDTH 11 0
BBX 8 13 1 0
BITMAP
7F
3F
89
DB
DB
9B
18
89
C3
C3
C3
C3
81
ENDCHAR
STARTCHAR 078
ENCODING 78
SWIDTH 792 0
DWIDTH 11 0
BBX 8 13 1 0
BITMAP
F1
FB
FF
CF
C3
81
00
81
C3
C3
C3
C3
81
ENDCHAR
STARTCHAR 079
ENCODING 79
SWIDTH 792 0
DWIDTH 11 0
BBX 8 13 1 0
BITMAP
3E
FE
C3
C3
C3
81
00
C1
C3
C3
C3
BE
7E
ENDCHAR
STARTCHAR 080
ENCODING 80
SWIDTH 792 0
DWIDTH 11 0
BBX 8 13 1 0
BITMAP
7E
3E
83
C3
C3
BF
7E
80
C0
C0
C0
C0
80
ENDCHAR
STARTCHAR 081
ENCODING 81
SWIDTH 792 0
DWIDTH 11 0
BBX 8 13 1 0
BITMAP
7C
FF
C3
C3
81
00
81
C3
C3
C6
06
33
31
ENDCHAR
STARTCHAR 082
ENCODING 82
SWIDTH 792 0
DWIDTH 11 0
BBX 8 13 1 0
BITMAP
7E
3E
83
C3
C3
BF
7E
90
D8
DC
CE
C7
83
ENDCHAR
STARTCHAR 083
ENCODING 83
SWIDTH 792 0
DWIDTH 11 0
BBX 8 13 1 0
BITMAP
3F
FE
C0
C0
C0
BE
7F
03
03
03
03
FE
FE
ENDCHAR
STARTCHAR 084
ENCODING 84
SWIDTH 792 0
DWIDTH 11 0
BBX 8 13 1 0
BITMAP
FF
FF
00
18
18
08
00
08
18
18
18
18
18
ENDCHAR
STARTCHAR 085
ENCODING 85
SWIDTH 792 0
DWIDTH 11 0
BBX 8 13 1 0
BITMAP
81
C3
C3
C3
C3
81
00
C1
C3
C3
C3
BE
7E
ENDCHAR
STARTCHAR 086
ENCODING 86
SWIDTH 720 0
DWIDTH 10 0
BBX 8 13 1 0
BITMAP
81
C3
C3
C3
81
00
80
C6
CE
DC
F8
C0
C0
ENDCHAR
STARTCHAR 087
ENCODING 87
SWIDTH 792 0
DWIDTH 11 0
BBX 8 13 1 0
BITMAP
81
C3
C3
C3
C3
99
18
99
DB
DB
93
3D
7E
ENDCHAR
STARTCHAR 088
ENCODING 88
SWIDTH 720 0
DWIDTH 10 0
BBX 9 13 1 0
BITMAP
C180
C380
6300
7600
3600
1400
0000
3400
3600
7700
E300
C380
C180
ENDCHAR
STARTCHAR 089
ENCODING 89
SWIDTH 792 0
DWIDTH 11 0
BBX 8 13 1 0
BITMAP
81
C3
C3
C3
C3
BF
7E
01
03
03
03
7E
7E
ENDCHAR
STARTCHAR 090
ENCODING 90
SWIDTH 792 0
DWIDTH 11 0
BBX 7 13 2 0
BITMAP
FE
7E
06
0E
0C
18
20
60
60
C0
C0
FC
FE
ENDCHAR
STARTCHAR 091
ENCODING 91
SWIDTH 504 0
DWIDTH 7 0
BBX 5 13 1 0
BITMAP
78
30
80
C0
C0
80
00
80
C0
C0
80
30
78
ENDCHAR
STARTCHAR 092
ENCODING 92
SWIDTH 720 0
DWIDTH 10 0
BBX 9 12 1 1
BITMAP
C000
E000
7000
3000
3000
1000
0000
0E00
0600
0300
0380
0180
ENDCHAR
STARTCHAR 093
ENCODING 93
SWIDTH 504 0
DWIDTH 7 0
BBX 5 13 0 0
BITMAP
F0
60
08
18
18
08
00
08
18
18
18
68
F0
ENDCHAR
STARTCHAR 094
ENCODING 94
SWIDTH 720 0
DWIDTH 10 0
BBX 8 5 1 8
BITMAP
14
34
76
E7
C3
ENDCHAR
STARTCHAR 095
ENCODING 95
SWIDTH 720 0
DWIDTH 10 0
BBX 9 2 0 -3
BITMAP
FF80
FF80
ENDCHAR
STARTCHAR 096
ENCODING 96
SWIDTH 360 0
DWIDTH 5 0
BBX 3 3 1 10
BITMAP
C0
E0
60
ENDCHAR
STARTCHAR 097
ENCODING 97
SWIDTH 792 0
DWIDTH 11 0
BBX 8 13 1 0
BITMAP
7F
3F
81
C3
C3
BF
7E
81
C3
C3
C3
C3
81
ENDCHAR
STARTCHAR 098
ENCODING 98
SWIDTH 792 0
DWIDTH 11 0
BBX 8 13 1 0
BITMAP
7E
3E
83
C3
C3
BF
7E
81
C3
C3
C3
BE
7E
ENDCHAR
STARTCHAR 099
ENCODING 99
SWIDTH 792 0
DWIDTH 11 0
BBX 8 13 1 0
BITMAP
3F
FE
C0
C0
C0
80
80
C0
C0
C0
00
3E
3F
ENDCHAR
STARTCHAR 100
ENCODING 100
SWIDTH 792 0
DWIDTH 11 0
BBX 8 13 1 0
BITMAP
7E
3E
83
C3
C3
81
00
81
C3
C3
C3
BE
7E
ENDCHAR
STARTCHAR 101
ENCODING 101
SWIDTH 792 0
DWIDTH 11 0
BBX 8 13 1 0
BITMAP
7F
3E
80
C0
C0
BE
7E
80
C0
C0
80
3E
7F
ENDCHAR
STARTCHAR 102
ENCODING 102
SWIDTH 792 0
DWIDTH 11 0
BBX 8 13 1 0
BITMAP
7F
3E
80
C0
C0
BE
7E
80
C0
C0
C0
C0
80
ENDCHAR
STARTCHAR 103
ENCODING 103
SWIDTH 792 0
DWIDTH 11 0
BBX 8 13 1 0
BITMAP
7E
FC
C0
C0
80
0E
8F
C3
C3
C3
C3
3E
3E
ENDCHAR
STARTCHAR 104
ENCODING 104
SWIDTH 792 0
DWIDTH 11 0
BBX 8 13 1 0
BITMAP
81
C3
C3
C3
C3
BF
7E
81
C3
C3
C3
C3
81
ENDCHAR
STARTCHAR 105
ENCODING 105
SWIDTH 432 0
DWIDTH 6 0
BBX 2 13 2 0
BITMAP
40
C0
C0
C0
C0
40
00
40
C0
C0
C0
C0
40
ENDCHAR
STARTCHAR 106
ENCODING 106
SWIDTH 792 0
DWIDTH 11 0
BBX 8 13 1 0
BITMAP
01
03
03
03
03
01
00
01
C3
C3
C3
BE
7E
ENDCHAR
STARTCHAR 107
ENCODING 107
SWIDTH 792 0
DWIDTH 11 0
BBX 8 13 1 0
BITMAP
87
CE
DC
F8
C0
BE
7E
81
C3
C3
C3
C3
81
ENDCHAR
STARTCHAR 108
ENCODING 108
SWIDTH 792 0
DWIDTH 11 0
BBX 8 13 1 0
BITMAP
80
C0
C0
C0
C0
80
00
80
C0
C0
80
3E
7F
ENDCHAR
STARTCHAR 109
ENCODING 109
SWIDTH 792 0
DWIDTH 11 0
BBX 8 13 1 0
BITMAP
7F
3F
89
DB
DB
9B
18
89
C3
C3
C3
C3
81
ENDCHAR
STARTCHAR 110
ENCODING 110
SWIDTH 792 0
DWIDTH 11 0
BBX 8 13 1 0
BITMAP
F1
FB
FF
CF
C3
81
00
81
C3
C3
C3
C3
81
ENDCHAR
STARTCHAR 111
ENCODING 111
SWIDTH 792 0
DWIDTH 11 0
BBX 8 13 1 0
BITMAP
3E
FE
C3
C3
C3
81
00
C1
C3
C3
C3
BE
7E
ENDCHAR
STARTCHAR 112
ENCODING 112
SWIDTH 792 0
DWIDTH 11 0
BBX 8 13 1 0
BITMAP
7E
3E
83
C3
C3
BF
7E
80
C0
C0
C0
C0
80
ENDCHAR
STARTCHAR 113
ENCODING 113
SWIDTH 792 0
DWIDTH 11 0
BBX 8 13 1 0
BITMAP
7C
FF
C3
C3
81
00
81
C3
C3
C6
06
33
31
ENDCHAR
STARTCHAR 114
ENCODING 114
SWIDTH 792 0
DWIDTH 11 0
BBX 8 13 1 0
BITMAP
7E
3E
83
C3
C3
BF
7E
90
D8
DC
CE
C7
83
ENDCHAR
STARTCHAR 115
ENCODING 115
SWIDTH 792 0
DWIDTH 11 0
BBX 8 13 1 0
BITMAP
3F
FE
C0
C0
C0
BE
7F
03
03
03
03
FE
FE
ENDCHAR
STARTCHAR 116
ENCODING 116
SWIDTH 792 0
DWIDTH 11 0
BBX 8 13 1 0
BITMAP
FF
FF
00
18
18
08
00
08
18
18
18
18
18
ENDCHAR
STARTCHAR 117
ENCODING 117
SWIDTH 792 0
DWIDTH 11 0
BBX 8 13 1 0
BITMAP
81
C3
C3
C3
C3
81
00
C1
C3
C3
C3
BE
7E
ENDCHAR
STARTCHAR 118
ENCODING 118
SWIDTH 720 0
DWIDTH 10 0
BBX 8 13 1 0
BITMAP
81
C3
C3
C3
81
00
80
C6
CE
DC
F8
C0
C0
ENDCHAR
STARTCHAR 119
ENCODING 119
SWIDTH 792 0
DWIDTH 11 0
BBX 8 13 1 0
BITMAP
81
C3
C3
C3
C3
99
18
99
DB
DB
93
3D
7E
ENDCHAR
STARTCHAR 120
ENCODING 120
SWIDTH 720 0
DWIDTH 10 0
BBX 9 13 1 0
BITMAP
C180
C380
6300
7600
3600
1400
0000
3400
3600
7700
E300
C380
C180
ENDCHAR
STARTCHAR 121
ENCODING 121
SWIDTH 792 0
DWIDTH 11 0
BBX 8 13 1 0
BITMAP
81
C3
C3
C3
C3
BF
7E
01
03
03
03
7E
7E
ENDCHAR
STARTCHAR 122
ENCODING 122
SWIDTH 792 0
DWIDTH 11 0
BBX 7 13 2 0
BITMAP
FE
7E
06
0E
0C
18
20
60
60
C0
C0
FC
FE
ENDCHAR
STARTCHAR 123
ENCODING 123
SWIDTH 576 0
DWIDTH 8 0
BBX 7 13 0 0
BITMAP
0E
3C
30
30
30
D0
C0
10
30
30
30
0C
0E
ENDCHAR
STARTCHAR 124
ENCODING 124
SWIDTH 504 0
DWIDTH 7 0
BBX 2 16 2 -3
BITMAP
C0
C0
C0
C0
C0
C0
C0
C0
C0
C0
C0
C0
C0
C0
C0
C0
ENDCHAR
STARTCHAR 125
ENCODING 125
SWIDTH 576 0
DWIDTH 8 0
BBX 6 13 1 0
BITMAP
C0
60
30
30
30
2C
0C
20
30
30
30
40
C0
ENDCHAR
STARTCHAR 126
ENCODING 126
SWIDTH 648 0
DWIDTH 9 0
BBX 7 3 1 5
BITMAP
E2
FE
9E
ENDCHAR
STARTCHAR 127
ENCODING 127
SWIDTH 792 0
DWIDTH 11 0
BBX 5 12 0 1
BITMAP
F8
D8
D8
D8
D8
D8
D8
D8
D8
D8
D8
F8
ENDCHAR
STARTCHAR 128
ENCODING 128
SWIDTH 0 0
DWIDTH 0 0
BBX 0 0 0 0
BITMAP
ENDCHAR
STARTCHAR 129
ENCODING 129
SWIDTH 0 0
DWIDTH 0 0
BBX 0 0 0 0
BITMAP
ENDCHAR
STARTCHAR 130
ENCODING 130
SWIDTH 0 0
DWIDTH 0 0
BBX 0 0 0 0
BITMAP
ENDCHAR
STARTCHAR 131
ENCODING 131
SWIDTH 0 0
DWIDTH 0 0
BBX 0 0 0 0
BITMAP
ENDCHAR
STARTCHAR 132
ENCODING 132
SWIDTH 0 0
DWIDTH 0 0
BBX 0 0 0 0
BITMAP
ENDCHAR
STARTCHAR 133
ENCODING 133
SWIDTH 0 0
DWIDTH 0 0
BBX 0 0 0 0
BITMAP
ENDCHAR
STARTCHAR 134
ENCODING 134
SWIDTH 0 0
DWIDTH 0 0
BBX 0 0 0 0
BITMAP
ENDCHAR
STARTCHAR 135
ENCODING 135
SWIDTH 0 0
DWIDTH 0 0
BBX 0 0 0 0
BITMAP
ENDCHAR
STARTCHAR 136
ENCODING 136
SWIDTH 0 0
DWIDTH 0 0
BBX 0 0 0 0
BITMAP
ENDCHAR
STARTCHAR 137
ENCODING 137
SWIDTH 0 0
DWIDTH 0 0
BBX 0 0 0 0
BITMAP
ENDCHAR
STARTCHAR 138
ENCODING 138
SWIDTH 0 0
DWIDTH 0 0
BBX 0 0 0 0
BITMAP
ENDCHAR
STARTCHAR 139
ENCODING 139
SWIDTH 0 0
DWIDTH 0 0
BBX 0 0 0 0
BITMAP
ENDCHAR
STARTCHAR 140
ENCODING 140
SWIDTH 0 0
DWIDTH 0 0
BBX 0 0 0 0
BITMAP
ENDCHAR
STARTCHAR 141
ENCODING 141
SWIDTH 0 0
DWIDTH 0 0
BBX 0 0 0 0
BITMAP
ENDCHAR
STARTCHAR 142
ENCODING 142
SWIDTH 0 0
DWIDTH 0 0
BBX 0 0 0 0
BITMAP
ENDCHAR
STARTCHAR 143
ENCODING 143
SWIDTH 0 0
DWIDTH 0 0
BBX 0 0 0 0
BITMAP
ENDCHAR
STARTCHAR 144
ENCODING 144
SWIDTH 0 0
DWIDTH 0 0
BBX 0 0 0 0
BITMAP
ENDCHAR
STARTCHAR 145
ENCODING 145
SWIDTH 0 0
DWIDTH 0 0
BBX 0 0 0 0
BITMAP
ENDCHAR
STARTCHAR 146
ENCODING 146
SWIDTH 0 0
DWIDTH 0 0
BBX 0 0 0 0
BITMAP
ENDCHAR
STARTCHAR 147
ENCODING 147
SWIDTH 0 0
DWIDTH 0 0
BBX 0 0 0 0
BITMAP
ENDCHAR
STARTCHAR 148
ENCODING 148
SWIDTH 0 0
DWIDTH 0 0
BBX 0 0 0 0
BITMAP
ENDCHAR
STARTCHAR 149
ENCODING 149
SWIDTH 0 0
DWIDTH 0 0
BBX 0 0 0 0
BITMAP
ENDCHAR
STARTCHAR 150
ENCODING 150
SWIDTH 0 0
DWIDTH 0 0
BBX 0 0 0 0
BITMAP
ENDCHAR
STARTCHAR 151
ENCODING 151
SWIDTH 0 0
DWIDTH 0 0
BBX 0 0 0 0
BITMAP
ENDCHAR
STARTCHAR 152
ENCODING 152
SWIDTH 0 0
DWIDTH 0 0
BBX 0 0 0 0
BITMAP
ENDCHAR
STARTCHAR 153
ENCODING 153
SWIDTH 0 0
DWIDTH 0 0
BBX 0 0 0 0
BITMAP
ENDCHAR
STARTCHAR 154
ENCODING 154
SWIDTH 0 0
DWIDTH 0 0
BBX 0 0 0 0
BITMAP
ENDCHAR
STARTCHAR 155
ENCODING 155
SWIDTH 0 0
DWIDTH 0 0
BBX 0 0 0 0
BITMAP
ENDCHAR
STARTCHAR 156
ENCODING 156
SWIDTH 0 0
DWIDTH 0 0
BBX 0 0 0 0
BITMAP
ENDCHAR
STARTCHAR 157
ENCODING 157
SWIDTH 0 0
DWIDTH 0 0
BBX 0 0 0 0
BITMAP
ENDCHAR
STARTCHAR 158
ENCODING 158
SWIDTH 0 0
DWIDTH 0 0
BBX 0 0 0 0
BITMAP
ENDCHAR
STARTCHAR 159
ENCODING 159
SWIDTH 0 0
DWIDTH 0 0
BBX 0 0 0 0
BITMAP
ENDCHAR
STARTCHAR 160
ENCODING 160
SWIDTH 792 0
DWIDTH 11 0
BBX 9 17 0 0
BITMAP
FF80
8080
8080
8080
8080
8080
8080
8080
8080
8080
8080
8080
8080
8080
8080
8080
FF80
ENDCHAR
STARTCHAR 161
ENCODING 161
SWIDTH 792 0
DWIDTH 11 0
BBX 9 17 0 0
BITMAP
FF80
8080
8080
8080
8080
8080
8080
8080
8080
8080
8080
8080
8080
8080
8080
8080
FF80
ENDCHAR
STARTCHAR 162
ENCODING 162
SWIDTH 792 0
DWIDTH 11 0
BBX 9 17 0 0
BITMAP
FF80
8080
8080
8080
8080
8080
8080
8080
8080
8080
8080
8080
8080
8080
8080
8080
FF80
ENDCHAR
STARTCHAR 163
ENCODING 163
SWIDTH 792 0
DWIDTH 11 0
BBX 9 17 0 0
BITMAP
FF80
8080
8080
8080
8080
8080
8080
8080
8080
8080
8080
8080
8080
8080
8080
8080
FF80
ENDCHAR
STARTCHAR 164
ENCODING 164
SWIDTH 792 0
DWIDTH 11 0
BBX 9 17 0 0
BITMAP
FF80
8080
8080
8080
8080
8080
8080
8080
8080
8080
8080
8080
8080
8080
8080
8080
FF80
ENDCHAR
STARTCHAR 165
ENCODING 165
SWIDTH 792 0
DWIDTH 11 0
BBX 9 17 0 0
BITMAP
FF80
8080
8080
8080
8080
8080
8080
8080
8080
8080
8080
8080
8080
8080
8080
8080
FF80
ENDCHAR
STARTCHAR 166
ENCODING 166
SWIDTH 792 0
DWIDTH 11 0
BBX 9 17 0 0
BITMAP
FF80
8080
8080
8080
8080
8080
8080
8080
8080
8080
8080
8080
8080
8080
8080
8080
FF80
ENDCHAR
STARTCHAR 167
ENCODING 167
SWIDTH 792 0
DWIDTH 11 0
BBX 9 17 0 0
BITMAP
FF80
8080
8080
8080
8080
8080
8080
8080
8080
8080
8080
8080
8080
8080
8080
8080
FF80
ENDCHAR
STARTCHAR 168
ENCODING 168
SWIDTH 792 0
DWIDTH 11 0
BBX 9 17 0 0
BITMAP
FF80
8080
8080
8080
8080
8080
8080
8080
8080
8080
8080
8080
8080
8080
8080
8080
FF80
ENDCHAR
STARTCHAR 169
ENCODING 169
SWIDTH 792 0
DWIDTH 11 0
BBX 9 17 0 0
BITMAP
FF80
8080
8080
8080
8080
8080
8080
8080
8080
8080
8080
8080
8080
8080
8080
8080
FF80
ENDCHAR
STARTCHAR 170
ENCODING 170
SWIDTH 792 0
DWIDTH 11 0
BBX 9 17 0 0
BITMAP
FF80
8080
8080
8080
8080
8080
8080
8080
8080
8080
8080
8080
8080
8080
8080
8080
FF80
ENDCHAR
STARTCHAR 171
ENCODING 171
SWIDTH 792 0
DWIDTH 11 0
BBX 9 17 0 0
BITMAP
FF80
8080
8080
8080
8080
8080
8080
8080
8080
8080
8080
8080
8080
8080
8080
8080
FF80
ENDCHAR
STARTCHAR 172
ENCODING 172
SWIDTH 792 0
DWIDTH 11 0
BBX 9 17 0 0
BITMAP
FF80
8080
8080
8080
8080
8080
8080
8080
8080
8080
8080
8080
8080
8080
8080
8080
FF80
ENDCHAR
STARTCHAR 173
ENCODING 173
SWIDTH 792 0
DWIDTH 11 0
BBX 9 17 0 0
BITMAP
FF80
8080
8080
8080
8080
8080
8080
8080
8080
8080
8080
8080
8080
8080
8080
8080
FF80
ENDCHAR
STARTCHAR 174
ENCODING 174
SWIDTH 792 0
DWIDTH 11 0
BBX 9 17 0 0
BITMAP
FF80
8080
8080
8080
8080
8080
8080
8080
8080
8080
8080
8080
8080
8080
8080
8080
FF80
ENDCHAR
STARTCHAR 175
ENCODING 175
SWIDTH 792 0
DWIDTH 11 0
BBX 9 17 0 0
BITMAP
FF80
8080
8080
8080
8080
8080
8080
8080
8080
8080
8080
8080
8080
8080
8080
8080
FF80
ENDCHAR
STARTCHAR 176
ENCODING 176
SWIDTH 792 0
DWIDTH 11 0
BBX 9 17 0 0
BITMAP
FF80
8080
8080
8080
8080
8080
8080
8080
8080
8080
8080
8080
8080
8080
8080
8080
FF80
ENDCHAR
STARTCHAR 177
ENCODING 177
SWIDTH 792 0
DWIDTH 11 0
BBX 9 17 0 0
BITMAP
FF80
8080
8080
8080
8080
8080
8080
8080
8080
8080
8080
8080
8080
8080
8080
8080
FF80
ENDCHAR
STARTCHAR 178
ENCODING 178
SWIDTH 792 0
DWIDTH 11 0
BBX 9 17 0 0
BITMAP
FF80
8080
8080
8080
8080
8080
8080
8080
8080
8080
8080
8080
8080
8080
8080
8080
FF80
ENDCHAR
STARTCHAR 179
ENCODING 179
SWIDTH 792 0
DWIDTH 11 0
BBX 9 17 0 0
BITMAP
FF80
8080
8080
8080
8080
8080
8080
8080
8080
8080
8080
8080
8080
8080
8080
8080
FF80
ENDCHAR
STARTCHAR 180
ENCODING 180
SWIDTH 792 0
DWIDTH 11 0
BBX 9 17 0 0
BITMAP
FF80
8080
8080
8080
8080
8080
8080
8080
8080
8080
8080
8080
8080
8080
8080
8080
FF80
ENDCHAR
STARTCHAR 181
ENCODING 181
SWIDTH 792 0
DWIDTH 11 0
BBX 9 17 0 0
BITMAP
FF80
8080
8080
8080
8080
8080
8080
8080
8080
8080
8080
8080
8080
8080
8080
8080
FF80
ENDCHAR
STARTCHAR 182
ENCODING 182
SWIDTH 792 0
DWIDTH 11 0
BBX 9 17 0 0
BITMAP
FF80
8080
8080
8080
8080
8080
8080
8080
8080
8080
8080
8080
8080
8080
8080
8080
FF80
ENDCHAR
STARTCHAR 183
ENCODING 183
SWIDTH 792 0
DWIDTH 11 0
BBX 9 17 0 0
BITMAP
FF80
8080
8080
8080
8080
8080
8080
8080
8080
8080
8080
8080
8080
8080
8080
8080
FF80
ENDCHAR
STARTCHAR 184
ENCODING 184
SWIDTH 792 0
DWIDTH 11 0
BBX 9 17 0 0
BITMAP
FF80
8080
8080
8080
8080
8080
8080
8080
8080
8080
8080
8080
8080
8080
8080
8080
FF80
ENDCHAR
STARTCHAR 185
ENCODING 185
SWIDTH 792 0
DWIDTH 11 0
BBX 9 17 0 0
BITMAP
FF80
8080
8080
8080
8080
8080
8080
8080
8080
8080
8080
8080
8080
8080
8080
8080
FF80
ENDCHAR
STARTCHAR 186
ENCODING 186
SWIDTH 792 0
DWIDTH 11 0
BBX 9 17 0 0
BITMAP
FF80
8080
8080
8080
8080
8080
8080
8080
8080
8080
8080
8080
8080
8080
8080
8080
FF80
ENDCHAR
STARTCHAR 187
ENCODING 187
SWIDTH 792 0
DWIDTH 11 0
BBX 9 17 0 0
BITMAP
FF80
8080
8080
8080
8080
8080
8080
8080
8080
8080
8080
8080
8080
8080
8080
8080
FF80
ENDCHAR
STARTCHAR 188
ENCODING 188
SWIDTH 792 0
DWIDTH 11 0
BBX 9 17 0 0
BITMAP
FF80
8080
8080
8080
8080
8080
8080
8080
8080
8080
8080
8080
8080
8080
8080
8080
FF80
ENDCHAR
STARTCHAR 189
ENCODING 189
SWIDTH 792 0
DWIDTH 11 0
BBX 9 17 0 0
BITMAP
FF80
8080
8080
8080
8080
8080
8080
8080
8080
8080
8080
8080
8080
8080
8080
8080
FF80
ENDCHAR
STARTCHAR 190
ENCODING 190
SWIDTH 792 0
DWIDTH 11 0
BBX 9 17 0 0
BITMAP
FF80
8080
8080
8080
8080
8080
8080
8080
8080
8080
8080
8080
8080
8080
8080
8080
FF80
ENDCHAR
STARTCHAR 191
ENCODING 191
SWIDTH 792 0
DWIDTH 11 0
BBX 9 17 0 0
BITMAP
FF80
8080
8080
8080
8080
8080
8080
8080
8080
8080
8080
8080
8080
8080
8080
8080
FF80
ENDCHAR
STARTCHAR 192
ENCODING 192
SWIDTH 792 0
DWIDTH 11 0
BBX 9 17 0 0
BITMAP
FF80
8080
8080
8080
8080
8080
8080
8080
8080
8080
8080
8080
8080
8080
8080
8080
FF80
ENDCHAR
STARTCHAR 193
ENCODING 193
SWIDTH 792 0
DWIDTH 11 0
BBX 9 17 0 0
BITMAP
FF80
8080
8080
8080
8080
8080
8080
8080
8080
8080
8080
8080
8080
8080
8080
8080
FF80
ENDCHAR
STARTCHAR 194
ENCODING 194
SWIDTH 792 0
DWIDTH 11 0
BBX 9 17 0 0
BITMAP
FF80
8080
8080
8080
8080
8080
8080
8080
8080
8080
8080
8080
8080
8080
8080
8080
FF80
ENDCHAR
STARTCHAR 195
ENCODING 195
SWIDTH 792 0
DWIDTH 11 0
BBX 9 17 0 0
BITMAP
FF80
8080
8080
8080
8080
8080
8080
8080
8080
8080
8080
8080
8080
8080
8080
8080
FF80
ENDCHAR
STARTCHAR 196
ENCODING 196
SWIDTH 792 0
DWIDTH 11 0
BBX 9 17 0 0
BITMAP
FF80
8080
8080
8080
8080
8080
8080
8080
8080
8080
8080
8080
8080
8080
8080
8080
FF80
ENDCHAR
STARTCHAR 197
ENCODING 197
SWIDTH 792 0
DWIDTH 11 0
BBX 9 17 0 0
BITMAP
FF80
8080
8080
8080
8080
8080
8080
8080
8080
8080
8080
8080
8080
8080
8080
8080
FF80
ENDCHAR
STARTCHAR 198
ENCODING 198
SWIDTH 792 0
DWIDTH 11 0
BBX 9 17 0 0
BITMAP
FF80
8080
8080
8080
8080
8080
8080
8080
8080
8080
8080
8080
8080
8080
8080
8080
FF80
ENDCHAR
STARTCHAR 199
ENCODING 199
SWIDTH 792 0
DWIDTH 11 0
BBX 9 17 0 0
BITMAP
FF80
8080
8080
8080
8080
8080
8080
8080
8080
8080
8080
8080
8080
8080
8080
8080
FF80
ENDCHAR
STARTCHAR 200
ENCODING 200
SWIDTH 792 0
DWIDTH 11 0
BBX 9 17 0 0
BITMAP
FF80
8080
8080
8080
8080
8080
8080
8080
8080
8080
8080
8080
8080
8080
8080
8080
FF80
ENDCHAR
STARTCHAR 201
ENCODING 201
SWIDTH 792 0
DWIDTH 11 0
BBX 9 17 0 0
BITMAP
FF80
8080
8080
8080
8080
8080
8080
8080
8080
8080
8080
8080
8080
8080
8080
8080
FF80
ENDCHAR
STARTCHAR 202
ENCODING 202
SWIDTH 792 0
DWIDTH 11 0
BBX 9 17 0 0
BITMAP
FF80
8080
8080
8080
8080
8080
8080
8080
8080
8080
8080
8080
8080
8080
8080
8080
FF80
ENDCHAR
STARTCHAR 203
ENCODING 203
SWIDTH 792 0
DWIDTH 11 0
BBX 9 17 0 0
BITMAP
FF80
8080
8080
8080
8080
8080
8080
8080
8080
8080
8080
8080
8080
8080
8080
8080
FF80
ENDCHAR
STARTCHAR 204
ENCODING 204
SWIDTH 792 0
DWIDTH 11 0
BBX 9 17 0 0
BITMAP
FF80
8080
8080
8080
8080
8080
8080
8080
8080
8080
8080
8080
8080
8080
8080
8080
FF80
ENDCHAR
STARTCHAR 205
ENCODING 205
SWIDTH 792 0
DWIDTH 11 0
BBX 9 17 0 0
BITMAP
FF80
8080
8080
8080
8080
8080
8080
8080
8080
8080
8080
8080
8080
8080
8080
8080
FF80
ENDCHAR
STARTCHAR 206
ENCODING 206
SWIDTH 792 0
DWIDTH 11 0
BBX 9 17 0 0
BITMAP
FF80
8080
8080
8080
8080
8080
8080
8080
8080
8080
8080
8080
8080
8080
8080
8080
FF80
ENDCHAR
STARTCHAR 207
ENCODING 207
SWIDTH 792 0
DWIDTH 11 0
BBX 9 17 0 0
BITMAP
FF80
8080
8080
8080
8080
8080
8080
8080
8080
8080
8080
8080
8080
8080
8080
8080
FF80
ENDCHAR
STARTCHAR 208
ENCODING 208
SWIDTH 792 0
DWIDTH 11 0
BBX 9 17 0 0
BITMAP
FF80
8080
8080
8080
8080
8080
8080
8080
8080
8080
8080
8080
8080
8080
8080
8080
FF80
ENDCHAR
STARTCHAR 209
ENCODING 209
SWIDTH 792 0
DWIDTH 11 0
BBX 9 17 0 0
BITMAP
FF80
8080
8080
8080
8080
8080
8080
8080
8080
8080
8080
8080
8080
8080
8080
8080
FF80
ENDCHAR
STARTCHAR 210
ENCODING 210
SWIDTH 792 0
DWIDTH 11 0
BBX 9 17 0 0
BITMAP
FF80
8080
8080
8080
8080
8080
8080
8080
8080
8080
8080
8080
8080
8080
8080
8080
FF80
ENDCHAR
STARTCHAR 211
ENCODING 211
SWIDTH 792 0
DWIDTH 11 0
BBX 9 17 0 0
BITMAP
FF80
8080
8080
8080
8080
8080
8080
8080
8080
8080
8080
8080
8080
8080
8080
8080
FF80
ENDCHAR
STARTCHAR 212
ENCODING 212
SWIDTH 792 0
DWIDTH 11 0
BBX 9 17 0 0
BITMAP
FF80
8080
8080
8080
8080
8080
8080
8080
8080
8080
8080
8080
8080
8080
8080
8080
FF80
ENDCHAR
STARTCHAR 213
ENCODING 213
SWIDTH 792 0
DWIDTH 11 0
BBX 9 17 0 0
BITMAP
FF80
8080
8080
8080
8080
8080
8080
8080
8080
8080
8080
8080
8080
8080
8080
8080
FF80
ENDCHAR
STARTCHAR 214
ENCODING 214
SWIDTH 792 0
DWIDTH 11 0
BBX 9 17 0 0
BITMAP
FF80
8080
8080
8080
8080
8080
8080
8080
8080
8080
8080
8080
8080
8080
8080
8080
FF80
ENDCHAR
STARTCHAR 215
ENCODING 215
SWIDTH 792 0
DWIDTH 11 0
BBX 9 17 0 0
BITMAP
FF80
8080
8080
8080
8080
8080
8080
8080
8080
8080
8080
8080
8080
8080
8080
8080
FF80
ENDCHAR
STARTCHAR 216
ENCODING 216
SWIDTH 792 0
DWIDTH 11 0
BBX 9 17 0 0
BITMAP
FF80
8080
8080
8080
8080
8080
8080
8080
8080
8080
8080
8080
8080
8080
8080
8080
FF80
ENDCHAR
STARTCHAR 217
ENCODING 217
SWIDTH 792 0
DWIDTH 11 0
BBX 9 17 0 0
BITMAP
FF80
8080
8080
8080
8080
8080
8080
8080
8080
8080
8080
8080
8080
8080
8080
8080
FF80
ENDCHAR
STARTCHAR 218
ENCODING 218
SWIDTH 792 0
DWIDTH 11 0
BBX 9 17 0 0
BITMAP
FF80
8080
8080
8080
8080
8080
8080
8080
8080
8080
8080
8080
8080
8080
8080
8080
FF80
ENDCHAR
STARTCHAR 219
ENCODING 219
SWIDTH 792 0
DWIDTH 11 0
BBX 9 17 0 0
BITMAP
FF80
8080
8080
8080
8080
8080
8080
8080
8080
8080
8080
8080
8080
8080
8080
8080
FF80
ENDCHAR
STARTCHAR 220
ENCODING 220
SWIDTH 792 0
DWIDTH 11 0
BBX 9 17 0 0
BITMAP
FF80
8080
8080
8080
8080
8080
8080
8080
8080
8080
8080
8080
8080
8080
8080
8080
FF80
ENDCHAR
STARTCHAR 221
ENCODING 221
SWIDTH 792 0
DWIDTH 11 0
BBX 9 17 0 0
BITMAP
FF80
8080
8080
8080
8080
8080
8080
8080
8080
8080
8080
8080
8080
8080
8080
8080
FF80
ENDCHAR
STARTCHAR 222
ENCODING 222
SWIDTH 792 0
DWIDTH 11 0
BBX 9 17 0 0
BITMAP
FF80
8080
8080
8080
8080
8080
8080
8080
8080
8080
8080
8080
8080
8080
8080
8080
FF80
ENDCHAR
STARTCHAR 223
ENCODING 223
SWIDTH 792 0
DWIDTH 11 0
BBX 9 17 0 0
BITMAP
FF80
8080
8080
8080
8080
8080
8080
8080
8080
8080
8080
8080
8080
8080
8080
8080
FF80
ENDCHAR
STARTCHAR 224
ENCODING 224
SWIDTH 792 0
DWIDTH 11 0
BBX 9 17 0 0
BITMAP
FF80
8080
8080
8080
8080
8080
8080
8080
8080
8080
8080
8080
8080
8080
8080
8080
FF80
ENDCHAR
STARTCHAR 225
ENCODING 225
SWIDTH 792 0
DWIDTH 11 0
BBX 9 17 0 0
BITMAP
FF80
8080
8080
8080
8080
8080
8080
8080
8080
8080
8080
8080
8080
8080
8080
8080
FF80
ENDCHAR
STARTCHAR 226
ENCODING 226
SWIDTH 792 0
DWIDTH 11 0
BBX 9 17 0 0
BITMAP
FF80
8080
8080
8080
8080
8080
8080
8080
8080
8080
8080
8080
8080
8080
8080
8080
FF80
ENDCHAR
STARTCHAR 227
ENCODING 227
SWIDTH 792 0
DWIDTH 11 0
BBX 9 17 0 0
BITMAP
FF80
8080
8080
8080
8080
8080
8080
8080
8080
8080
8080
8080
8080
8080
8080
8080
FF80
ENDCHAR
STARTCHAR 228
ENCODING 228
SWIDTH 792 0
DWIDTH 11 0
BBX 9 17 0 0
BITMAP
FF80
8080
8080
8080
8080
8080
8080
8080
8080
8080
8080
8080
8080
8080
8080
8080
FF80
ENDCHAR
STARTCHAR 229
ENCODING 229
SWIDTH 792 0
DWIDTH 11 0
BBX 9 17 0 0
BITMAP
FF80
8080
8080
8080
8080
8080
8080
8080
8080
8080
8080
8080
8080
8080
8080
8080
FF80
ENDCHAR
STARTCHAR 230
ENCODING 230
SWIDTH 792 0
DWIDTH 11 0
BBX 9 17 0 0
BITMAP
FF80
8080
8080
8080
8080
8080
8080
8080
8080
8080
8080
8080
8080
8080
8080
8080
FF80
ENDCHAR
STARTCHAR 231
ENCODING 231
SWIDTH 792 0
DWIDTH 11 0
BBX 9 17 0 0
BITMAP
FF80
8080
8080
8080
8080
8080
8080
8080
8080
8080
8080
8080
8080
8080
8080
8080
FF80
ENDCHAR
STARTCHAR 232
ENCODING 232
SWIDTH 792 0
DWIDTH 11 0
BBX 9 17 0 0
BITMAP
FF80
8080
8080
8080
8080
8080
8080
8080
8080
8080
8080
8080
8080
8080
8080
8080
FF80
ENDCHAR
STARTCHAR 233
ENCODING 233
SWIDTH 792 0
DWIDTH 11 0
BBX 9 17 0 0
BITMAP
FF80
8080
8080
8080
8080
8080
8080
8080
8080
8080
8080
8080
8080
8080
8080
8080
FF80
ENDCHAR
STARTCHAR 234
ENCODING 234
SWIDTH 792 0
DWIDTH 11 0
BBX 9 17 0 0
BITMAP
FF80
8080
8080
8080
8080
8080
8080
8080
8080
8080
8080
8080
8080
8080
8080
8080
FF80
ENDCHAR
STARTCHAR 235
ENCODING 235
SWIDTH 792 0
DWIDTH 11 0
BBX 9 17 0 0
BITMAP
FF80
8080
8080
8080
8080
8080
8080
8080
8080
8080
8080
8080
8080
8080
8080
8080
FF80
ENDCHAR
STARTCHAR 236
ENCODING 236
SWIDTH 792 0
DWIDTH 11 0
BBX 9 17 0 0
BITMAP
FF80
8080
8080
8080
8080
8080
8080
8080
8080
8080
8080
8080
8080
8080
8080
8080
FF80
ENDCHAR
STARTCHAR 237
ENCODING 237
SWIDTH 792 0
DWIDTH 11 0
BBX 9 17 0 0
BITMAP
FF80
8080
8080
8080
8080
8080
8080
8080
8080
8080
8080
8080
8080
8080
8080
8080
FF80
ENDCHAR
STARTCHAR 238
ENCODING 238
SWIDTH 792 0
DWIDTH 11 0
BBX 9 17 0 0
BITMAP
FF80
8080
8080
8080
8080
8080
8080
8080
8080
8080
8080
8080
8080
8080
8080
8080
FF80
ENDCHAR
STARTCHAR 239
ENCODING 239
SWIDTH 792 0
DWIDTH 11 0
BBX 9 17 0 0
BITMAP
FF80
8080
8080
8080
8080
8080
8080
8080
8080
8080
8080
8080
8080
8080
8080
8080
FF80
ENDCHAR
STARTCHAR 240
ENCODING 240
SWIDTH 792 0
DWIDTH 11 0
BBX 9 17 0 0
BITMAP
FF80
8080
8080
8080
8080
8080
8080
8080
8080
8080
8080
8080
8080
8080
8080
8080
FF80
ENDCHAR
STARTCHAR 241
ENCODING 241
SWIDTH 792 0
DWIDTH 11 0
BBX 9 17 0 0
BITMAP
FF80
8080
8080
8080
8080
8080
8080
8080
8080
8080
8080
8080
8080
8080
8080
8080
FF80
ENDCHAR
STARTCHAR 242
ENCODING 242
SWIDTH 792 0
DWIDTH 11 0
BBX 9 17 0 0
BITMAP
FF80
8080
8080
8080
8080
8080
8080
8080
8080
8080
8080
8080
8080
8080
8080
8080
FF80
ENDCHAR
STARTCHAR 243
ENCODING 243
SWIDTH 792 0
DWIDTH 11 0
BBX 9 17 0 0
BITMAP
FF80
8080
8080
8080
8080
8080
8080
8080
8080
8080
8080
8080
8080
8080
8080
8080
FF80
ENDCHAR
STARTCHAR 244
ENCODING 244
SWIDTH 792 0
DWIDTH 11 0
BBX 9 17 0 0
BITMAP
FF80
8080
8080
8080
8080
8080
8080
8080
8080
8080
8080
8080
8080
8080
8080
8080
FF80
ENDCHAR
STARTCHAR 245
ENCODING 245
SWIDTH 792 0
DWIDTH 11 0
BBX 9 17 0 0
BITMAP
FF80
8080
8080
8080
8080
8080
8080
8080
8080
8080
8080
8080
8080
8080
8080
8080
FF80
ENDCHAR
STARTCHAR 246
ENCODING 246
SWIDTH 792 0
DWIDTH 11 0
BBX 9 17 0 0
BITMAP
FF80
8080
8080
8080
8080
8080
8080
8080
8080
8080
8080
8080
8080
8080
8080
8080
FF80
ENDCHAR
STARTCHAR 247
ENCODING 247
SWIDTH 792 0
DWIDTH 11 0
BBX 9 17 0 0
BITMAP
FF80
8080
8080
8080
8080
8080
8080
8080
8080
8080
8080
8080
8080
8080
8080
8080
FF80
ENDCHAR
STARTCHAR 248
ENCODING 248
SWIDTH 792 0
DWIDTH 11 0
BBX 9 17 0 0
BITMAP
FF80
8080
8080
8080
8080
8080
8080
8080
8080
8080
8080
8080
8080
8080
8080
8080
FF80
ENDCHAR
STARTCHAR 249
ENCODING 249
SWIDTH 792 0
DWIDTH 11 0
BBX 9 17 0 0
BITMAP
FF80
8080
8080
8080
8080
8080
8080
8080
8080
8080
8080
8080
8080
8080
8080
8080
FF80
ENDCHAR
STARTCHAR 250
ENCODING 250
SWIDTH 792 0
DWIDTH 11 0
BBX 9 17 0 0
BITMAP
FF80
8080
8080
8080
8080
8080
8080
8080
8080
8080
8080
8080
8080
8080
8080
8080
FF80
ENDCHAR
STARTCHAR 251
ENCODING 251
SWIDTH 792 0
DWIDTH 11 0
BBX 9 17 0 0
BITMAP
FF80
8080
8080
8080
8080
8080
8080
8080
8080
8080
8080
8080
8080
8080
8080
8080
FF80
ENDCHAR
STARTCHAR 252
ENCODING 252
SWIDTH 792 0
DWIDTH 11 0
BBX 9 17 0 0
BITMAP
FF80
8080
8080
8080
8080
8080
8080
8080
8080
8080
8080
8080
8080
8080
8080
8080
FF80
ENDCHAR
STARTCHAR 253
ENCODING 253
SWIDTH 792 0
DWIDTH 11 0
BBX 9 17 0 0
BITMAP
FF80
8080
8080
8080
8080
8080
8080
8080
8080
8080
8080
8080
8080
8080
8080
8080
FF80
ENDCHAR
STARTCHAR 254
ENCODING 254
SWIDTH 792 0
DWIDTH 11 0
BBX 9 17 0 0
BITMAP
FF80
8080
8080
8080
8080
8080
8080
8080
8080
8080
8080
8080
8080
8080
8080
8080
FF80
ENDCHAR
STARTCHAR 255
ENCODING 255
SWIDTH 792 0
DWIDTH 11 0
BBX 9 17 0 0
BITMAP
FF80
8080
8080
8080
8080
8080
8080
8080
8080
8080
8080
8080
8080
8080
8080
8080
FF80
ENDCHAR
ENDFONT
